<svg width="159" height="161" viewBox="0 0 159 161" fill="none" xmlns="http://www.w3.org/2000/svg">
<g id="leafCicle">
<circle id="Ellipse 4" cx="82" cy="86" r="75" fill="#536C66"/>
<g id="leaf-svgrepo-com 4" clip-path="url(#clip0)">
<g id="Group">
<path id="Vector" d="M52.2243 49.8823C52.2243 49.8823 59.044 50.5831 63.939 53.4225C100.189 74.4482 110.784 43.8621 110.506 43.3879C110.506 43.3879 106.137 44.1687 102.537 43.2928C79.6941 37.7333 64.9407 45.0871 64.9407 45.0871C64.9407 45.0871 82.4481 35.9454 102.474 41.1404C106.896 42.2887 113.513 40.0263 119.193 36.6528C119.193 36.6528 116.68 35.3169 115.73 34.6334C113.234 36.1502 110.522 37.2186 107.625 37.6081C94.6335 17.7633 75.1369 24.0531 69.4198 27.5349C55.9183 35.7592 52.2243 49.8823 52.2243 49.8823Z" fill="white"/>
</g>
</g>
<g id="leaf-svgrepo-com 5" clip-path="url(#clip1)">
<g id="Group_2">
<path id="Vector_2" d="M59.2597 135.362C59.2597 135.362 57.5857 128.713 58.5797 123.142C65.9392 81.8876 33.5738 82.3924 33.2235 82.8162C33.2235 82.8162 35.4512 86.654 35.8596 90.3366C38.4481 113.704 50.4043 125.052 50.4043 125.052C50.4043 125.052 35.8261 111.727 33.8587 91.1324C33.4253 86.5844 29.0362 81.1403 23.9234 76.9566C23.9234 76.9566 23.5274 79.7744 23.2102 80.9013C25.4892 82.7279 27.4208 84.9112 28.7776 87.5003C14.5729 106.495 27.1516 122.665 32.3787 126.846C44.7249 136.721 59.2597 135.362 59.2597 135.362Z" fill="white"/>
</g>
</g>
<g id="leaf-svgrepo-com 6" clip-path="url(#clip2)">
<g id="Group_3">
<path id="Vector_3" d="M144.068 86.206C144.068 86.206 138.08 89.5436 132.442 90.0254C90.6877 93.5941 99.5521 124.726 100.052 124.955C100.052 124.955 103.183 121.81 106.634 120.462C128.535 111.914 136.402 97.4279 136.402 97.4279C136.402 97.4279 127.304 114.958 107.921 122.189C103.64 123.785 99.5171 129.433 96.7992 135.455C96.7992 135.455 99.6235 135.108 100.794 135.122C101.969 132.448 103.578 130.017 105.727 128.037C127.751 136.841 140.114 120.506 142.801 114.375C149.143 99.8938 144.068 86.206 144.068 86.206Z" fill="white"/>
</g>
</g>
<path id="Intersect" fill-rule="evenodd" clip-rule="evenodd" d="M44.1944 50.6166C35.5854 56.4777 29.8006 66.1792 29.3043 77.2569L32.774 76.3606C33.4924 67.2625 38.1806 59.2812 45.1068 54.1486L44.1944 50.6166Z" fill="white"/>
<path id="Intersect_2" fill-rule="evenodd" clip-rule="evenodd" d="M132.181 80.1556C131.865 69.7456 126.793 59.6531 117.719 53.2806L116.609 56.6882C123.896 62.184 128.106 70.4272 128.712 79.0266L132.181 80.1556Z" fill="white"/>
<path id="Intersect_3" fill-rule="evenodd" clip-rule="evenodd" d="M64.3543 132.887C73.5061 137.858 84.7794 138.56 94.8556 133.931L92.4705 131.256C84.0527 134.782 74.8107 134.268 67.0769 130.459L64.3543 132.887Z" fill="white"/>
</g>
<defs>
<clipPath id="clip0">
<rect width="59.8046" height="59.8046" fill="white" transform="translate(81.0661 84.2547) rotate(-130)"/>
</clipPath>
<clipPath id="clip1">
<rect width="59.8046" height="59.8046" fill="white" transform="translate(81.6946 96.5031) rotate(120)"/>
</clipPath>
<clipPath id="clip2">
<rect width="59.8046" height="59.8046" fill="white" transform="translate(100.727 74.5928) rotate(15)"/>
</clipPath>
</defs>
</svg>
