<svg width="150" height="150" viewBox="0 0 150 150" fill="none" xmlns="http://www.w3.org/2000/svg">
<g id="virusTarget">
<circle id="Ellipse 5" r="75" transform="matrix(1 7.87356e-10 7.87356e-10 -1 75 75)" fill="#536C66"/>
<g id="target-svgrepo-com 1">
<g id="Group">
<g id="Group_2">
<g id="Group_3">
<path id="Vector" d="M142.083 78.4621H132.334C130.628 107.35 107.377 130.537 78.4618 132.138V142.083C78.4618 143.694 77.156 145 75.5451 145C73.9342 145 72.6285 143.694 72.6285 142.083V132.166C43.4501 130.835 19.9062 107.537 18.1883 78.4621H7.91667C6.30579 78.4621 5 77.1563 5 75.5454C5 73.9345 6.30579 72.6288 7.91667 72.6288H18.139C19.378 43.0917 43.122 19.2768 72.6285 17.9305V7.91667C72.6285 6.3058 73.9342 5 75.5451 5C77.156 5 78.4618 6.3058 78.4618 7.91667V17.9585C107.704 19.5787 131.153 43.2792 132.384 72.6288H142.083C143.694 72.6288 145 73.9345 145 75.5454C145 77.1563 143.694 78.4621 142.083 78.4621ZM78.4618 126.293C104.159 124.707 124.799 104.132 126.489 78.4621H117.901C116.242 99.4035 99.4332 116.147 78.4618 117.704V126.293V126.293ZM72.6285 126.329V117.739C51.3916 116.442 34.2924 99.5895 32.6182 78.4621H24.0333C25.7363 104.319 46.6669 125.009 72.6285 126.329ZM72.6285 23.7679C46.3388 25.104 25.2061 46.3085 23.9761 72.6288H32.5526C33.7656 51.0352 51.0635 33.6714 72.6285 32.3534V23.7679ZM75.5451 55.5555C73.9342 55.5555 72.6285 54.2497 72.6285 52.6388V38.1981C54.2815 39.498 39.5943 54.2526 38.3976 72.6288H52.6388C54.2497 72.6288 55.5555 73.9345 55.5555 75.5454C55.5555 77.1563 54.2497 78.4621 52.6388 78.4621H38.4746C40.1213 96.3707 54.6099 110.618 72.6285 111.895V97.3612C72.6285 95.7503 73.9342 94.4445 75.5451 94.4445C77.156 94.4445 78.4618 95.7503 78.4618 97.3612V111.85C96.2141 110.321 110.416 96.1843 112.045 78.4621H97.3609C95.75 78.4621 94.4442 77.1563 94.4442 75.5454C94.4442 73.9345 95.75 72.6288 97.3609 72.6288H112.122C110.938 54.4407 96.5413 39.8008 78.4618 38.2427V52.6388C78.4618 54.2497 77.156 55.5555 75.5451 55.5555ZM78.4618 23.8032V32.389C99.7602 33.9704 116.765 51.2225 117.967 72.6288H126.547C125.325 46.4963 104.487 25.4105 78.4618 23.8032Z" fill="white"/>
</g>
</g>
</g>
<g id="virus-svgrepo-com 7" clip-path="url(#clip0)">
<g id="Group_4">
<path id="Vector_2" d="M92.3054 73.6354C91.2914 74.4045 89.8423 74.2131 89.0665 73.1947C88.993 73.0912 88.9329 72.9832 88.8728 72.8775L83.2019 73.838C83.2553 74.2309 83.291 74.6271 83.291 75.0345C83.291 76.6829 82.8324 78.2211 82.0466 79.5456L85.6617 81.8841C85.8921 81.7283 86.1737 81.6437 86.472 81.6715C87.1599 81.7349 87.6652 82.3382 87.6051 83.0305C87.5427 83.7184 86.9339 84.2226 86.2461 84.1613C85.5582 84.1001 85.054 83.4902 85.1141 82.8023C85.1197 82.7333 85.1375 82.6721 85.1508 82.6042L81.5591 80.2858C80.8423 81.2541 79.9407 82.0711 78.8956 82.6799L81.4756 86.7558C81.7505 86.7113 82.0421 86.7525 82.3015 86.9027C82.8981 87.25 83.1051 88.0113 82.7567 88.6079C82.4106 89.2078 81.647 89.4148 81.0493 89.0676C80.4527 88.7214 80.2468 87.9579 80.593 87.358C80.6264 87.299 80.6642 87.2478 80.7087 87.1955L78.1098 83.0917C77.2305 83.4935 76.2789 83.764 75.2749 83.8586L75.8025 86.9751C76.0051 87.0241 76.1921 87.1253 76.3256 87.299C76.6306 87.7041 76.556 88.2796 76.152 88.5845C75.748 88.8939 75.1714 88.8149 74.8642 88.412C74.5592 88.0091 74.636 87.4314 75.0378 87.1253C75.0768 87.0997 75.1224 87.0897 75.1625 87.0641L74.6238 83.8887C74.5559 83.8909 74.4914 83.8987 74.4246 83.8987C73.2737 83.8987 72.1774 83.6738 71.1723 83.2731L68.6847 87.8432C68.9262 88.1493 69.0742 88.5322 69.0676 88.9529C69.052 89.9246 68.2562 90.7004 67.2845 90.6804C66.3162 90.6648 65.5437 89.869 65.5582 88.8984C65.5726 87.9301 66.3696 87.1598 67.3401 87.1732C67.437 87.1754 67.5294 87.1921 67.6217 87.2066L70.0526 82.7411C68.8372 82.0544 67.7998 81.0849 67.0307 79.9252L63.3989 82.7745C63.4712 83.0405 63.4579 83.3344 63.3377 83.6082C63.0539 84.237 62.3159 84.5186 61.6859 84.2348C61.0537 83.9521 60.7733 83.2119 61.056 82.5808C61.342 81.9531 62.0811 81.6726 62.711 81.9553C62.7723 81.9843 62.8279 82.0221 62.8836 82.0577L66.5744 79.1561C66.029 78.1131 65.684 76.95 65.5905 75.7101L60.1422 75.7201C59.9897 76.0785 59.7237 76.3935 59.353 76.5872C58.4949 77.0402 57.4308 76.713 56.9823 75.8537C56.5315 74.9955 56.861 73.9337 57.7158 73.4841C58.5739 73.0299 59.6369 73.3616 60.0888 74.2198C60.1344 74.3032 60.1633 74.3901 60.1945 74.4802L65.5871 74.4669C65.6316 73.7645 65.7496 73.0789 65.9489 72.4267L62.464 71.0844C62.2714 71.2836 62.011 71.4216 61.7127 71.4572C61.027 71.5351 60.4093 71.0432 60.3303 70.3598C60.2513 69.6742 60.7421 69.0486 61.43 68.9729C62.1145 68.8961 62.7333 69.3892 62.8112 70.0737C62.8179 70.1416 62.8168 70.204 62.8157 70.2763L66.2483 71.5986C66.9283 69.9858 68.0747 68.6123 69.5172 67.6562L67.8343 65.9188C67.575 66.0179 67.2811 66.0368 66.9973 65.9433C66.3384 65.724 65.9856 65.0183 66.2004 64.3661C66.4152 63.7094 67.1242 63.3499 67.7787 63.5625C68.4354 63.7829 68.7893 64.4897 68.5767 65.1475C68.5533 65.212 68.5266 65.2699 68.4966 65.3333L70.2986 67.1921C71.1567 66.7391 72.0983 66.4274 73.0945 66.2805L72.6148 61.7828C72.3432 61.7204 72.0883 61.5691 71.9036 61.3364C71.4806 60.79 71.5786 60.0086 72.1262 59.5812C72.6738 59.1571 73.4585 59.2595 73.8825 59.8049C74.3044 60.3525 74.2031 61.135 73.6566 61.5613C73.6032 61.598 73.5464 61.6303 73.4907 61.6648L73.9727 66.1926C74.1241 66.1826 74.2732 66.1692 74.4268 66.1692C75.5788 66.1692 76.6762 66.3952 77.688 66.7947L78.5828 62.8101C78.3591 62.6476 78.1822 62.4161 78.1031 62.1256C77.925 61.4578 78.3179 60.7733 78.9869 60.5941C79.6536 60.4193 80.3403 60.8089 80.5184 61.4789C80.6965 62.1478 80.3003 62.8312 79.6324 63.0104C79.5668 63.0283 79.5022 63.0349 79.4343 63.0427L78.5083 67.1676C79.1527 67.5026 79.7449 67.9145 80.2858 68.3953L81.5123 66.6679C81.4022 66.4942 81.3454 66.2917 81.3732 66.0702C81.4411 65.5715 81.9041 65.2176 82.4072 65.2821C82.9114 65.3523 83.262 65.8153 83.1952 66.3173C83.1262 66.8215 82.6621 67.1721 82.159 67.1042C82.1123 67.0975 82.0755 67.073 82.031 67.0596L80.7655 68.8427C81.6982 69.7932 82.4117 70.953 82.8402 72.2508L88.6736 71.2591C88.7938 70.7571 89.0698 70.2919 89.5095 69.9591C90.5257 69.1878 91.9759 69.3803 92.7495 70.3987C93.5197 71.4127 93.3216 72.8619 92.3054 73.6354ZM71.6698 75.4452C70.9408 75.4452 70.3453 76.0396 70.3453 76.7742C70.3453 77.5054 70.9408 78.0964 71.6698 78.0964C72.4022 78.0964 72.9966 77.5065 72.9966 76.7742C72.9966 76.0407 72.4033 75.4452 71.6698 75.4452ZM75.0879 72.5647C74.5515 72.5647 74.1151 73.001 74.1151 73.5364C74.1151 74.0773 74.5515 74.5103 75.0879 74.5103C75.6255 74.5103 76.0618 74.0784 76.0618 73.5364C76.0607 72.9977 75.6255 72.5647 75.0879 72.5647ZM78.7008 76.6862C77.9084 76.6862 77.2661 77.3285 77.2661 78.1187C77.2661 78.9145 77.9084 79.5579 78.7008 79.5579C79.4933 79.5579 80.1366 78.9145 80.1366 78.1187C80.1366 77.3285 79.4944 76.6862 78.7008 76.6862Z" fill="white"/>
</g>
</g>
</g>
</g>
<defs>
<clipPath id="clip0">
<rect width="36.4384" height="36.4384" fill="white" transform="matrix(1 0 0 -1 56.7808 93.2192)"/>
</clipPath>
</defs>
</svg>
