<svg width="150" height="150" viewBox="0 0 150 150" fill="none" xmlns="http://www.w3.org/2000/svg">
<g id="virusIcon">
<circle id="Ellipse 6" cx="75" cy="75" r="75" fill="#536C66"/>
<g id="virus">
<g id="virus-svgrepo-com 2" clip-path="url(#clip0)">
<g id="Group">
<path id="Vector" d="M56.7513 72.0699C55.3027 70.9712 53.2324 71.2447 52.1241 72.6996C52.0192 72.8475 51.9333 73.0017 51.8474 73.1528L43.7459 71.7805C43.8222 71.2192 43.8731 70.6532 43.8731 70.0712C43.8731 67.7162 43.218 65.5187 42.0954 63.6265L47.26 60.2857C47.5892 60.5083 47.9915 60.6291 48.4176 60.5894C49.4003 60.4988 50.1222 59.6369 50.0363 58.6479C49.9473 57.6652 49.0775 56.9449 48.0948 57.0323C47.1121 57.1198 46.3918 57.9912 46.4777 58.9739C46.4856 59.0724 46.5111 59.1599 46.5301 59.2569L41.3989 62.5691C40.3749 61.1857 39.0869 60.0185 37.5938 59.1488L41.2796 53.3258C41.6724 53.3894 42.089 53.3306 42.4595 53.1159C43.3118 52.6198 43.6075 51.5322 43.1098 50.6799C42.6153 49.8228 41.5245 49.5271 40.6706 50.0232C39.8183 50.5177 39.5242 51.6085 40.0187 52.4656C40.0664 52.5498 40.1204 52.623 40.184 52.6977L36.4712 58.5604C35.215 57.9864 33.8554 57.6 32.4212 57.4648L33.1749 53.0126C33.4643 52.9426 33.7314 52.7979 33.9222 52.5498C34.3579 51.971 34.2514 51.149 33.6742 50.7133C33.097 50.2712 32.2733 50.3841 31.8344 50.9597C31.3987 51.5354 31.5085 52.3606 32.0825 52.7979C32.1381 52.8345 32.2033 52.8488 32.2606 52.8854L31.491 57.4219C31.394 57.4187 31.3017 57.4076 31.2063 57.4076C29.5622 57.4076 27.9959 57.7288 26.5601 58.3012L23.0062 51.7723C23.3512 51.335 23.5627 50.788 23.5532 50.1869C23.5309 48.7988 22.394 47.6905 21.0058 47.7191C19.6224 47.7414 18.5189 48.8783 18.5396 50.2649C18.5603 51.6483 19.6988 52.7486 21.0853 52.7295C21.2237 52.7263 21.3556 52.7025 21.4876 52.6818L24.9604 59.0613C23.224 60.0424 21.742 61.4274 20.6433 63.0843L15.4548 59.0136C15.5581 58.6336 15.5391 58.2138 15.3673 57.8226C14.9618 56.9242 13.9076 56.5219 13.0076 56.9274C12.1044 57.3313 11.7037 58.3887 12.1076 59.2903C12.5163 60.1871 13.5721 60.5878 14.4721 60.1839C14.5596 60.1426 14.6391 60.0885 14.7186 60.0376L19.9913 64.183C19.2122 65.673 18.7193 67.3346 18.5857 69.106L10.8021 69.0917C10.5843 68.5797 10.2043 68.1297 9.67476 67.853C8.44879 67.2058 6.92865 67.6733 6.28784 68.9009C5.64385 70.1268 6.11452 71.6438 7.33572 72.2862C8.56169 72.9349 10.0802 72.4611 10.7258 71.2351C10.791 71.1159 10.8324 70.9918 10.8769 70.863L18.5809 70.8821C18.6445 71.8855 18.8131 72.865 19.0977 73.7968L14.1191 75.7144C13.844 75.4298 13.4719 75.2326 13.0458 75.1818C12.0663 75.0705 11.1838 75.7733 11.0709 76.7496C10.958 77.7291 11.6592 78.6227 12.6419 78.7309C13.6198 78.8406 14.5039 78.1362 14.6152 77.1583C14.6247 77.0613 14.6232 76.9722 14.6216 76.8689L19.5254 74.9798C20.497 77.2839 22.1348 79.2461 24.1956 80.612L21.7913 83.0941C21.4208 82.9526 21.0011 82.9256 20.5956 83.0591C19.6542 83.3724 19.1502 84.3805 19.4571 85.3123C19.764 86.2505 20.7769 86.7641 21.7118 86.4604C22.65 86.1455 23.1556 85.1358 22.8519 84.1961C22.8185 84.1038 22.7804 84.0211 22.7374 83.9305L25.3118 81.275C26.5378 81.9222 27.883 82.3674 29.3062 82.5773L28.6208 89.0029C28.2328 89.092 27.8687 89.3082 27.6048 89.6406C27.0005 90.4213 27.1404 91.5376 27.9228 92.1482C28.7051 92.754 29.8261 92.6077 30.432 91.8285C31.0346 91.0462 30.8899 89.9284 30.1092 89.3194C30.0328 89.2669 29.9517 89.2208 29.8722 89.1715L30.5608 82.7029C30.777 82.7173 30.9901 82.7363 31.2095 82.7363C32.8553 82.7363 34.4231 82.4135 35.8685 81.8427L37.147 87.5353C36.8273 87.7674 36.5745 88.0982 36.4616 88.5132C36.2072 89.4672 36.7685 90.4452 37.7242 90.7012C38.6766 90.9508 39.6577 90.3943 39.9121 89.437C40.1666 88.4814 39.6005 87.5051 38.6464 87.249C38.5526 87.2236 38.4604 87.2141 38.3634 87.2029L37.0404 81.31C37.9611 80.8314 38.807 80.2431 39.5798 79.5561L41.3321 82.024C41.1747 82.272 41.0936 82.5614 41.1333 82.8779C41.2303 83.5902 41.8918 84.0959 42.6105 84.0036C43.3309 83.9035 43.8317 83.242 43.7363 82.5249C43.6378 81.8045 42.9747 81.3037 42.256 81.4007C42.1892 81.4102 42.1367 81.4452 42.0731 81.4643L40.2651 78.9169C41.5976 77.559 42.6169 75.9021 43.2291 74.048L51.5628 75.4648C51.7346 76.1819 52.1289 76.8466 52.757 77.322C54.2088 78.424 56.2807 78.1489 57.3858 76.694C58.4861 75.2454 58.2031 73.1751 56.7513 72.0699ZM27.2708 69.4844C26.2293 69.4844 25.3786 68.6353 25.3786 67.5858C25.3786 66.5411 26.2293 65.6968 27.2708 65.6968C28.3171 65.6968 29.1662 66.5396 29.1662 67.5858C29.1662 68.6337 28.3187 69.4844 27.2708 69.4844ZM32.154 73.5996C31.3876 73.5996 30.7643 72.9763 30.7643 72.2115C30.7643 71.4387 31.3876 70.8201 32.154 70.8201C32.9221 70.8201 33.5454 71.4371 33.5454 72.2115C33.5438 72.9811 32.9221 73.5996 32.154 73.5996ZM37.3155 67.7115C36.1834 67.7115 35.2659 66.794 35.2659 65.665C35.2659 64.5281 36.1834 63.609 37.3155 63.609C38.4477 63.609 39.3667 64.5281 39.3667 65.665C39.3667 66.794 38.4492 67.7115 37.3155 67.7115Z" fill="white"/>
</g>
</g>
<g id="virus-svgrepo-com 4" clip-path="url(#clip1)">
<g id="Group_2">
<path id="Vector_2" d="M105.498 48.6908C104.431 47.9005 102.906 48.0972 102.089 49.1437C102.012 49.2501 101.948 49.361 101.885 49.4697L95.9155 48.4826C95.9718 48.0789 96.0093 47.6717 96.0093 47.2531C96.0093 45.5592 95.5266 43.9785 94.6994 42.6174L98.5049 40.2144C98.7474 40.3745 99.0439 40.4615 99.3579 40.4329C100.082 40.3677 100.614 39.7478 100.551 39.0363C100.485 38.3295 99.8441 37.8114 99.12 37.8743C98.3959 37.9372 97.8652 38.564 97.9284 39.2708C97.9343 39.3417 97.953 39.4046 97.9671 39.4744L94.1862 41.8568C93.4316 40.8618 92.4826 40.0223 91.3824 39.3966L94.0983 35.2082C94.3877 35.2539 94.6947 35.2116 94.9677 35.0572C95.5957 34.7004 95.8136 33.918 95.4469 33.305C95.0825 32.6885 94.2787 32.4757 93.6496 32.8326C93.0216 33.1883 92.8048 33.9729 93.1692 34.5894C93.2043 34.65 93.2442 34.7026 93.291 34.7564L90.5552 38.9734C89.6296 38.5605 88.6278 38.2826 87.571 38.1854L88.1264 34.9829C88.3396 34.9325 88.5365 34.8285 88.6771 34.65C88.9981 34.2337 88.9196 33.6424 88.4943 33.329C88.069 33.011 87.4621 33.0922 87.1387 33.5063C86.8176 33.9203 86.8985 34.5139 87.3215 34.8285C87.3625 34.8548 87.4105 34.8651 87.4527 34.8914L86.8856 38.1545C86.8141 38.1522 86.7462 38.1442 86.6759 38.1442C85.4644 38.1442 84.3103 38.3752 83.2523 38.787L80.6337 34.0907C80.8879 33.7762 81.0437 33.3827 81.0367 32.9504C81.0203 31.9519 80.1826 31.1547 79.1597 31.1753C78.1404 31.1913 77.3272 32.0091 77.3425 33.0064C77.3577 34.0015 78.1966 34.793 79.2183 34.7793C79.3202 34.777 79.4175 34.7598 79.5147 34.745L82.0736 39.3337C80.7942 40.0394 79.7022 41.0356 78.8926 42.2274L75.0695 39.2994C75.1456 39.026 75.1316 38.7241 75.005 38.4427C74.7063 37.7965 73.9294 37.5071 73.2663 37.7988C72.6008 38.0893 72.3055 38.8499 72.6031 39.4984C72.9043 40.1435 73.6822 40.4317 74.3454 40.1412C74.4098 40.1115 74.4684 40.0726 74.527 40.036L78.4122 43.0178C77.8381 44.0895 77.4749 45.2847 77.3765 46.5588L71.6412 46.5485C71.4807 46.1803 71.2007 45.8566 70.8105 45.6576C69.9072 45.192 68.7871 45.5283 68.3149 46.4113C67.8404 47.2931 68.1872 48.3843 69.087 48.8464C69.9903 49.313 71.1093 48.9722 71.585 48.0903C71.633 48.0045 71.6635 47.9153 71.6963 47.8227L77.3729 47.8364C77.4198 48.5581 77.544 49.2627 77.7537 49.9329L74.0853 51.3123C73.8826 51.1076 73.6084 50.9657 73.2944 50.9291C72.5727 50.8491 71.9224 51.3546 71.8392 52.0569C71.756 52.7614 72.2727 53.4042 72.9968 53.482C73.7174 53.5609 74.3688 53.0542 74.4508 52.3508C74.4579 52.2811 74.4567 52.217 74.4555 52.1427L78.0689 50.7839C78.7848 52.4412 79.9916 53.8526 81.5101 54.8351L79.7385 56.6205C79.4655 56.5187 79.1562 56.4992 78.8574 56.5953C78.1638 56.8206 77.7924 57.5458 78.0185 58.216C78.2447 58.8908 78.991 59.2603 79.6799 59.0418C80.3712 58.8153 80.7438 58.0891 80.52 57.4131C80.4954 57.3468 80.4673 57.2873 80.4356 57.2221L82.3326 55.312C83.2359 55.7775 84.2271 56.0978 85.2757 56.2487L84.7708 60.8707C84.4849 60.9347 84.2166 61.0903 84.0221 61.3293C83.5768 61.8909 83.68 62.6938 84.2564 63.133C84.8329 63.5688 85.6589 63.4636 86.1053 62.9031C86.5493 62.3404 86.4427 61.5363 85.8674 61.0983C85.8112 61.0605 85.7514 61.0274 85.6929 60.9919L86.2002 56.3391C86.3595 56.3494 86.5165 56.3631 86.6782 56.3631C87.8909 56.3631 89.0461 56.1309 90.1112 55.7203L91.0532 59.815C90.8177 59.982 90.6314 60.2199 90.5482 60.5184C90.3607 61.2047 90.7743 61.9081 91.4785 62.0922C92.1803 62.2718 92.9032 61.8715 93.0907 61.1829C93.2781 60.4955 92.861 59.7933 92.158 59.6091C92.0889 59.5908 92.021 59.5839 91.9495 59.5759L90.9747 55.3372C91.6531 54.9929 92.2764 54.5697 92.8458 54.0756L94.137 55.8507C94.021 56.0291 93.9612 56.2373 93.9905 56.4649C94.062 56.9773 94.5494 57.341 95.079 57.2747C95.6097 57.2026 95.9788 56.7268 95.9085 56.211C95.8359 55.6929 95.3473 55.3326 94.8177 55.4024C94.7685 55.4092 94.7298 55.4344 94.683 55.4481L93.3508 53.6158C94.3326 52.6391 95.0837 51.4473 95.5348 50.1136L101.675 51.1327C101.802 51.6486 102.092 52.1266 102.555 52.4686C103.625 53.2613 105.152 53.0634 105.966 52.0168C106.777 50.9749 106.568 49.4857 105.498 48.6908ZM83.776 46.831C83.0086 46.831 82.3818 46.2203 82.3818 45.4654C82.3818 44.714 83.0086 44.1066 83.776 44.1066C84.547 44.1066 85.1726 44.7128 85.1726 45.4654C85.1726 46.2191 84.5482 46.831 83.776 46.831ZM87.3742 49.7911C86.8094 49.7911 86.3502 49.3427 86.3502 48.7926C86.3502 48.2367 86.8094 47.7918 87.3742 47.7918C87.9401 47.7918 88.3994 48.2356 88.3994 48.7926C88.3982 49.3462 87.9401 49.7911 87.3742 49.7911ZM91.1774 45.5558C90.3432 45.5558 89.6671 44.8958 89.6671 44.0837C89.6671 43.266 90.3432 42.6049 91.1774 42.6049C92.0116 42.6049 92.6888 43.266 92.6888 44.0837C92.6888 44.8958 92.0128 45.5558 91.1774 45.5558Z" fill="white"/>
</g>
</g>
<g id="virus-svgrepo-com 3" clip-path="url(#clip2)">
<g id="Group_3">
<path id="Vector_3" d="M133.332 64.5826C132.747 64.1007 131.912 64.2206 131.465 64.8588C131.422 64.9236 131.388 64.9913 131.353 65.0575L128.084 64.4557C128.115 64.2095 128.135 63.9612 128.135 63.7059C128.135 62.6731 127.871 61.7092 127.418 60.8793L129.502 59.4141C129.635 59.5117 129.797 59.5647 129.969 59.5473C130.366 59.5075 130.657 59.1295 130.622 58.6957C130.586 58.2647 130.235 57.9488 129.839 57.9871C129.442 58.0255 129.152 58.4077 129.186 58.8387C129.19 58.8819 129.2 58.9203 129.208 58.9628L127.137 60.4155C126.724 59.8088 126.204 59.2969 125.602 58.9154L127.089 56.3615C127.247 56.3894 127.416 56.3636 127.565 56.2694C127.909 56.0518 128.028 55.5748 127.827 55.201C127.628 54.8251 127.188 54.6954 126.843 54.913C126.499 55.1298 126.381 55.6083 126.58 55.9842C126.599 56.0211 126.621 56.0532 126.647 56.086L125.149 58.6574C124.642 58.4056 124.093 58.2361 123.514 58.1768L123.819 56.2241C123.935 56.1934 124.043 56.1299 124.12 56.0211C124.296 55.7673 124.253 55.4067 124.02 55.2156C123.787 55.0217 123.455 55.0713 123.278 55.3237C123.102 55.5762 123.146 55.9381 123.378 56.1299C123.4 56.146 123.427 56.1523 123.45 56.1683L123.139 58.158C123.1 58.1566 123.063 58.1517 123.024 58.1517C122.361 58.1517 121.729 58.2926 121.149 58.5437L119.715 55.6801C119.855 55.4883 119.94 55.2484 119.936 54.9848C119.927 54.3759 119.468 53.8898 118.908 53.9024C118.35 53.9122 117.905 54.4108 117.913 55.019C117.921 55.6257 118.381 56.1083 118.94 56.0999C118.996 56.0986 119.049 56.0881 119.103 56.079L120.504 58.877C119.803 59.3074 119.205 59.9148 118.762 60.6415L116.668 58.8561C116.71 58.6894 116.702 58.5053 116.633 58.3338C116.469 57.9397 116.044 57.7633 115.681 57.9411C115.316 58.1183 115.155 58.582 115.318 58.9775C115.483 59.3708 115.909 59.5466 116.272 59.3694C116.307 59.3513 116.339 59.3276 116.371 59.3053L118.499 61.1234C118.185 61.7769 117.986 62.5057 117.932 63.2826L114.791 63.2763C114.703 63.0518 114.55 62.8544 114.336 62.733C113.841 62.4492 113.228 62.6542 112.969 63.1926C112.71 63.7303 112.9 64.3957 113.392 64.6774C113.887 64.962 114.5 64.7541 114.76 64.2164C114.787 64.1641 114.803 64.1097 114.821 64.0532L117.93 64.0616C117.955 64.5017 118.023 64.9313 118.138 65.34L116.129 66.1811C116.018 66.0562 115.868 65.9697 115.696 65.9474C115.301 65.8986 114.945 66.2069 114.899 66.6351C114.854 67.0647 115.137 67.4566 115.533 67.504C115.928 67.5522 116.285 67.2432 116.33 66.8143C116.333 66.7718 116.333 66.7327 116.332 66.6874L118.311 65.8589C118.703 66.8694 119.364 67.73 120.195 68.3291L119.225 69.4178C119.076 69.3557 118.906 69.3438 118.743 69.4024C118.363 69.5398 118.16 69.982 118.283 70.3906C118.407 70.8021 118.816 71.0274 119.193 70.8942C119.572 70.7561 119.776 70.3132 119.653 69.9011C119.64 69.8606 119.624 69.8243 119.607 69.7846L120.646 68.6199C121.14 68.9038 121.683 69.099 122.258 69.1911L121.981 72.0093C121.824 72.0484 121.678 72.1432 121.571 72.289C121.327 72.6314 121.384 73.121 121.699 73.3888C122.015 73.6545 122.467 73.5904 122.712 73.2486C122.955 72.9055 122.897 72.4152 122.582 72.1481C122.551 72.1251 122.518 72.1049 122.486 72.0833L122.764 69.2462C122.851 69.2525 122.937 69.2608 123.026 69.2608C123.69 69.2608 124.322 69.1193 124.906 68.8689L125.421 71.3656C125.292 71.4674 125.19 71.6125 125.145 71.7945C125.042 72.213 125.269 72.6419 125.654 72.7542C126.039 72.8637 126.434 72.6196 126.537 72.1997C126.64 71.7806 126.411 71.3524 126.026 71.2401C125.989 71.2289 125.951 71.2247 125.912 71.2199L125.378 68.6353C125.75 68.4253 126.091 68.1673 126.403 67.866L127.11 68.9484C127.047 69.0572 127.014 69.1841 127.03 69.3229C127.069 69.6353 127.336 69.8571 127.626 69.8167C127.917 69.7727 128.119 69.4826 128.08 69.1681C128.04 68.8521 127.773 68.6325 127.483 68.675C127.456 68.6792 127.435 68.6945 127.409 68.7029L126.68 67.5856C127.217 66.9901 127.629 66.2634 127.876 65.4502L131.238 66.0716C131.308 66.3861 131.467 66.6776 131.72 66.8861C132.306 67.3694 133.142 67.2488 133.588 66.6107C134.032 65.9753 133.918 65.0673 133.332 64.5826ZM121.436 63.4486C121.016 63.4486 120.673 63.0762 120.673 62.6159C120.673 62.1577 121.016 61.7874 121.436 61.7874C121.858 61.7874 122.201 62.157 122.201 62.6159C122.201 63.0755 121.859 63.4486 121.436 63.4486ZM123.407 65.2535C123.097 65.2535 122.846 64.9801 122.846 64.6447C122.846 64.3057 123.097 64.0344 123.407 64.0344C123.717 64.0344 123.968 64.305 123.968 64.6447C123.967 64.9822 123.717 65.2535 123.407 65.2535ZM125.489 62.671C125.033 62.671 124.662 62.2686 124.662 61.7734C124.662 61.2748 125.033 60.8716 125.489 60.8716C125.946 60.8716 126.317 61.2748 126.317 61.7734C126.317 62.2686 125.947 62.671 125.489 62.671Z" fill="white"/>
</g>
</g>
<g id="virus-svgrepo-com 6" clip-path="url(#clip3)">
<g id="Group_4">
<path id="Vector_4" d="M120.798 86.5132C120.493 86.2819 120.057 86.3395 119.824 86.6458C119.802 86.6769 119.784 86.7094 119.766 86.7412L118.06 86.4523C118.076 86.3341 118.087 86.2149 118.087 86.0924C118.087 85.5966 117.949 85.134 117.713 84.7356L118.8 84.0323C118.869 84.0792 118.954 84.1046 119.044 84.0963C119.25 84.0772 119.402 83.8957 119.384 83.6875C119.366 83.4806 119.182 83.329 118.976 83.3474C118.769 83.3658 118.617 83.5493 118.635 83.7561C118.637 83.7769 118.642 83.7953 118.646 83.8157L117.566 84.513C117.35 84.2218 117.079 83.9761 116.765 83.793L117.541 82.5671C117.623 82.5805 117.711 82.5681 117.789 82.5229C117.969 82.4185 118.031 82.1895 117.926 82.01C117.822 81.8296 117.592 81.7673 117.413 81.8718C117.233 81.9759 117.171 82.2055 117.275 82.386C117.285 82.4037 117.297 82.4191 117.31 82.4349L116.528 83.6691C116.264 83.5483 115.978 83.4669 115.676 83.4385L115.835 82.5011C115.895 82.4864 115.952 82.4559 115.992 82.4037C116.084 82.2819 116.061 82.1088 115.94 82.0171C115.818 81.924 115.645 81.9478 115.552 82.069C115.461 82.1901 115.484 82.3639 115.605 82.4559C115.616 82.4636 115.63 82.4667 115.642 82.4744L115.48 83.4294C115.46 83.4288 115.44 83.4264 115.42 83.4264C115.074 83.4264 114.744 83.494 114.442 83.6145L113.694 82.24C113.766 82.148 113.811 82.0328 113.809 81.9063C113.804 81.614 113.565 81.3807 113.273 81.3867C112.981 81.3914 112.749 81.6308 112.753 81.9227C112.758 82.2139 112.997 82.4456 113.289 82.4415C113.318 82.4409 113.346 82.4359 113.374 82.4315L114.105 83.7746C113.74 83.9811 113.428 84.2727 113.196 84.6215L112.104 83.7645C112.126 83.6845 112.122 83.5961 112.086 83.5138C112 83.3246 111.778 83.2399 111.589 83.3253C111.399 83.4103 111.314 83.633 111.399 83.8228C111.485 84.0116 111.708 84.0959 111.897 84.0109C111.915 84.0022 111.932 83.9908 111.949 83.9801L113.059 84.8528C112.895 85.1665 112.791 85.5163 112.763 85.8892L111.124 85.8862C111.079 85.7784 110.999 85.6837 110.887 85.6254C110.629 85.4892 110.309 85.5876 110.174 85.846C110.039 86.1041 110.138 86.4235 110.395 86.5587C110.653 86.6953 110.972 86.5956 111.108 86.3375C111.122 86.3124 111.131 86.2862 111.14 86.2591L112.762 86.2631C112.775 86.4744 112.811 86.6806 112.871 86.8768L111.823 87.2805C111.765 87.2206 111.687 87.179 111.597 87.1683C111.391 87.1449 111.205 87.2929 111.181 87.4984C111.157 87.7046 111.305 87.8928 111.512 87.9155C111.718 87.9386 111.904 87.7903 111.927 87.5844C111.929 87.564 111.929 87.5453 111.929 87.5235L112.961 87.1258C113.165 87.6109 113.51 88.024 113.944 88.3115L113.438 88.8341C113.36 88.8043 113.272 88.7986 113.186 88.8267C112.988 88.8927 112.882 89.1049 112.947 89.3011C113.011 89.4986 113.224 89.6067 113.421 89.5428C113.619 89.4765 113.725 89.2639 113.661 89.0661C113.654 89.0467 113.646 89.0293 113.637 89.0102L114.179 88.4511C114.437 88.5874 114.72 88.6811 115.02 88.7253L114.876 90.0781C114.794 90.0968 114.717 90.1423 114.662 90.2123C114.535 90.3767 114.564 90.6117 114.729 90.7402C114.894 90.8678 115.13 90.837 115.257 90.6729C115.384 90.5082 115.353 90.2729 115.189 90.1447C115.173 90.1336 115.156 90.1239 115.139 90.1135L115.284 88.7517C115.33 88.7548 115.375 88.7588 115.421 88.7588C115.767 88.7588 116.097 88.6908 116.402 88.5706L116.671 89.7691C116.603 89.8179 116.55 89.8876 116.526 89.975C116.473 90.1758 116.591 90.3817 116.792 90.4356C116.993 90.4881 117.199 90.371 117.253 90.1694C117.306 89.9683 117.187 89.7627 116.986 89.7088C116.967 89.7035 116.947 89.7015 116.927 89.6991L116.648 88.4585C116.842 88.3577 117.02 88.2339 117.183 88.0893L117.552 88.6088C117.519 88.661 117.502 88.7219 117.51 88.7886C117.53 88.9385 117.67 89.045 117.821 89.0256C117.973 89.0045 118.078 88.8652 118.058 88.7143C118.037 88.5626 117.898 88.4572 117.746 88.4776C117.732 88.4796 117.721 88.4869 117.708 88.491L117.327 87.9547C117.608 87.6688 117.822 87.32 117.951 86.9297L119.706 87.2279C119.742 87.3789 119.825 87.5188 119.957 87.6189C120.263 87.8509 120.699 87.793 120.932 87.4867C121.163 87.1817 121.104 86.7459 120.798 86.5132ZM114.592 85.9689C114.372 85.9689 114.193 85.7901 114.193 85.5692C114.193 85.3493 114.372 85.1715 114.592 85.1715C114.812 85.1715 114.991 85.3489 114.991 85.5692C114.991 85.7898 114.812 85.9689 114.592 85.9689ZM115.62 86.8353C115.458 86.8353 115.327 86.704 115.327 86.543C115.327 86.3803 115.458 86.2501 115.62 86.2501C115.781 86.2501 115.913 86.38 115.913 86.543C115.912 86.705 115.781 86.8353 115.62 86.8353ZM116.706 85.5956C116.468 85.5956 116.275 85.4025 116.275 85.1648C116.275 84.9255 116.468 84.732 116.706 84.732C116.945 84.732 117.138 84.9255 117.138 85.1648C117.138 85.4025 116.945 85.5956 116.706 85.5956Z" fill="white"/>
</g>
</g>
<g id="virus-svgrepo-com 5" clip-path="url(#clip4)">
<g id="Group_5">
<path id="Vector_5" d="M105.453 103.487C104.335 102.697 102.736 102.894 101.881 103.94C101.8 104.047 101.734 104.158 101.667 104.266L95.4135 103.279C95.4724 102.875 95.5117 102.468 95.5117 102.05C95.5117 100.356 95.006 98.7751 94.1394 97.414L98.1262 95.011C98.3802 95.1711 98.6908 95.2581 99.0197 95.2295C99.7783 95.1643 100.336 94.5443 100.269 93.8329C100.201 93.1261 99.5291 92.608 98.7706 92.6709C98.012 92.7338 97.456 93.3606 97.5223 94.0674C97.5284 94.1383 97.548 94.2012 97.5628 94.271L93.6018 96.6534C92.8113 95.6584 91.8171 94.8188 90.6645 94.1932L93.5097 90.0048C93.8129 90.0505 94.1345 90.0082 94.4205 89.8538C95.0784 89.4969 95.3067 88.7146 94.9225 88.1016C94.5408 87.4851 93.6988 87.2723 93.0396 87.6292C92.3817 87.9849 92.1546 88.7695 92.5364 89.386C92.5732 89.4466 92.6149 89.4992 92.664 89.553L89.7979 93.77C88.8282 93.3571 87.7788 93.0792 86.6716 92.982L87.2534 89.7795C87.4768 89.7291 87.683 89.625 87.8303 89.4466C88.1667 89.0303 88.0844 88.439 87.6388 88.1256C87.1933 87.8076 86.5575 87.8888 86.2187 88.3029C85.8824 88.7169 85.9671 89.3105 86.4102 89.625C86.4531 89.6514 86.5035 89.6616 86.5476 89.688L85.9536 92.9511C85.8787 92.9488 85.8075 92.9408 85.7339 92.9408C84.4647 92.9408 83.2556 93.1718 82.1473 93.5836L79.4039 88.8873C79.6703 88.5728 79.8335 88.1793 79.8261 87.747C79.809 86.7485 78.9313 85.9513 77.8598 85.9719C76.7919 85.9879 75.9401 86.8057 75.956 87.803C75.972 88.7981 76.8508 89.5896 77.9212 89.5759C78.0279 89.5736 78.1298 89.5564 78.2317 89.5416L80.9124 94.1303C79.5721 94.836 78.4281 95.8322 77.5799 97.024L73.5748 94.096C73.6545 93.8226 73.6398 93.5207 73.5073 93.2393C73.1943 92.5931 72.3805 92.3037 71.6857 92.5954C70.9885 92.8859 70.6792 93.6465 70.991 94.295C71.3064 94.9401 72.1215 95.2283 72.8162 94.9378C72.8837 94.9081 72.9451 94.8692 73.0065 94.8326L77.0767 97.8144C76.4752 98.8861 76.0947 100.081 75.9916 101.355L69.9833 101.345C69.8151 100.977 69.5217 100.653 69.113 100.454C68.1666 99.9886 66.9932 100.325 66.4985 101.208C66.0014 102.09 66.3647 103.181 67.3074 103.643C68.2538 104.11 69.426 103.769 69.9243 102.887C69.9747 102.801 70.0066 102.712 70.0409 102.619L75.9879 102.633C76.037 103.355 76.1671 104.059 76.3868 104.73L72.5437 106.109C72.3314 105.904 72.0441 105.762 71.7152 105.726C70.9591 105.646 70.2778 106.151 70.1907 106.853C70.1035 107.558 70.6448 108.201 71.4034 108.279C72.1583 108.358 72.8407 107.851 72.9267 107.147C72.934 107.078 72.9328 107.014 72.9316 106.939L76.717 105.58C77.467 107.238 78.7313 108.649 80.322 109.632L78.4661 111.417C78.1801 111.315 77.8561 111.296 77.5431 111.392C76.8164 111.617 76.4273 112.342 76.6642 113.013C76.9011 113.687 77.683 114.057 78.4048 113.838C79.129 113.612 79.5193 112.886 79.2848 112.21C79.2591 112.143 79.2296 112.084 79.1965 112.019L81.1837 110.109C82.1301 110.574 83.1685 110.894 84.2671 111.045L83.738 115.667C83.4385 115.731 83.1574 115.887 82.9537 116.126C82.4873 116.687 82.5953 117.49 83.1992 117.93C83.8031 118.365 84.6684 118.26 85.1361 117.7C85.6013 117.137 85.4896 116.333 84.8869 115.895C84.828 115.857 84.7654 115.824 84.704 115.788L85.2355 111.136C85.4024 111.146 85.5669 111.16 85.7363 111.16C87.0067 111.16 88.217 110.928 89.3327 110.517L90.3196 114.612C90.0729 114.779 89.8777 115.016 89.7906 115.315C89.5942 116.001 90.0275 116.705 90.7652 116.889C91.5004 117.068 92.2577 116.668 92.4541 115.98C92.6505 115.292 92.2135 114.59 91.4771 114.406C91.4047 114.387 91.3335 114.381 91.2586 114.373L90.2374 110.134C90.948 109.789 91.601 109.366 92.1976 108.872L93.5502 110.647C93.4287 110.826 93.3661 111.034 93.3968 111.262C93.4717 111.774 93.9823 112.138 94.5371 112.071C95.0931 111.999 95.4798 111.523 95.4061 111.008C95.33 110.489 94.8182 110.129 94.2634 110.199C94.2118 110.206 94.1713 110.231 94.1222 110.245L92.7266 108.412C93.7552 107.436 94.542 106.244 95.0146 104.91L101.448 105.929C101.58 106.445 101.885 106.923 102.369 107.265C103.49 108.058 105.089 107.86 105.943 106.813C106.792 105.771 106.573 104.282 105.453 103.487ZM82.6959 101.628C81.8919 101.628 81.2353 101.017 81.2353 100.262C81.2353 99.5105 81.8919 98.9032 82.6959 98.9032C83.5036 98.9032 84.159 99.5094 84.159 100.262C84.159 101.016 83.5048 101.628 82.6959 101.628ZM86.4654 104.588C85.8738 104.588 85.3926 104.139 85.3926 103.589C85.3926 103.033 85.8738 102.588 86.4654 102.588C87.0583 102.588 87.5394 103.032 87.5394 103.589C87.5382 104.143 87.0583 104.588 86.4654 104.588ZM90.4497 100.352C89.5758 100.352 88.8675 99.6924 88.8675 98.8803C88.8675 98.0625 89.5758 97.4015 90.4497 97.4015C91.3236 97.4015 92.0331 98.0625 92.0331 98.8803C92.0331 99.6924 91.3249 100.352 90.4497 100.352Z" fill="white"/>
</g>
</g>
<path id="Union" fill-rule="evenodd" clip-rule="evenodd" d="M88.4967 66.6638C99.4495 66.6638 108.329 57.7848 108.329 46.8319C108.329 35.8791 99.4495 27 88.4967 27C83.8317 27 79.543 28.6107 76.1562 31.3062H71.7559C75.9256 26.8123 81.8827 24 88.4967 24C101.106 24 111.329 34.2222 111.329 46.8319C111.329 59.2372 101.435 69.3317 89.1082 69.6558V69.924L51.6638 69.924L51.6638 66.924L88.4967 66.924V66.6638Z" fill="white"/>
<path id="Union_2" fill-rule="evenodd" clip-rule="evenodd" d="M88.4967 83.7053C99.5363 83.7053 108.329 92.3633 108.329 102.853C108.329 113.342 99.5363 122 88.4967 122C83.8533 122 79.6075 120.468 76.2463 117.913H71.7559C75.9256 122.272 81.8827 125 88.4967 125C101.106 125 111.329 115.084 111.329 102.853C111.329 90.8193 101.435 81.0275 89.1082 80.7131V80.363L51.6638 80.363L51.6638 83.363L88.4967 83.363V83.7053Z" fill="white"/>
<path id="Union_3" fill-rule="evenodd" clip-rule="evenodd" d="M137.252 62.3576C137.252 69.2247 131.569 74.8833 124.444 74.8833V75.1435H85.4551V78.1435H124.726V77.8809C133.326 77.7331 140.252 70.8397 140.252 62.3576C140.252 53.783 133.174 46.8319 124.444 46.8319C119.865 46.8319 115.74 48.7442 112.853 51.8001H117.546C119.532 50.5559 121.896 49.8319 124.444 49.8319C131.569 49.8319 137.252 55.4905 137.252 62.3576Z" fill="white"/>
</g>
</g>
<defs>
<clipPath id="clip0">
<rect width="52.0568" height="52.0568" fill="white" transform="translate(6 44.0921)"/>
</clipPath>
<clipPath id="clip1">
<rect width="38.3576" height="37.4443" fill="white" transform="translate(68.1028 28.5664)"/>
</clipPath>
<clipPath id="clip2">
<rect width="21.0054" height="22.8319" fill="white" transform="translate(112.853 52.3116)"/>
</clipPath>
<clipPath id="clip3">
<rect width="10.9593" height="10.9593" fill="white" transform="translate(110.114 80.6231)"/>
</clipPath>
<clipPath id="clip4">
<rect width="40.1842" height="37.4443" fill="white" transform="translate(66.2762 83.363)"/>
</clipPath>
</defs>
</svg>
